<?xml version="1.0" encoding="UTF-8"?>
<svg width="110px" height="157px" viewBox="0 0 110 157" version="1.1" xmlns="http://www.w3.org/2000/svg" xmlns:xlink="http://www.w3.org/1999/xlink">
    <!-- Generator: Sketch 59.1 (86144) - https://sketch.com -->
    <title>Group 35</title>
    <desc>Created with Sketch.</desc>
    <defs>
        <polygon id="path-1" points="0.0557470588 0.0736 33.7076735 0.0736 33.7076735 12.66532 0.0557470588 12.66532"></polygon>
    </defs>
    <g id="ACCEPTED" stroke="none" stroke-width="1" fill="none" fill-rule="evenodd">
        <g id="leocode_www_components" transform="translate(-112.000000, -1297.000000)">
            <g id="ICON/LOGO_TXT" transform="translate(112.000000, 1297.000000)">
                <g id="Group-35">
                    <polygon id="Fill-14" fill="#000000" points="72.5908897 25.08604 79.1840515 29.61484 82.4859926 29.64724 89.2042279 34.06444 86.0416544 25.36324"></polygon>
                    <polygon id="Fill-16" fill="#000000" points="103.209962 29.83912 103.209962 26.11672 97.1706971 26.11672 102.123609 32.46712"></polygon>
                    <polygon id="Fill-18" fill="#000000" points="58.6455485 28.33468 17.1139897 39.89068 0.000357352939 72.25828 11.1640632 67.06708 11.1640632 94.71868 30.9542691 111.59188 24.4468721 77.55748"></polygon>
                    <g id="Group-22" transform="translate(53.602941, 0.000000)">
                        <mask id="mask-2" fill="white">
                            <use xlink:href="#path-1"></use>
                        </mask>
                        <g id="Clip-21"></g>
                        <polygon id="Fill-20" fill="#000000" mask="url(#mask-2)" points="33.7076735 12.66532 18.9990265 0.07252 0.0557470588 2.30452 21.3789971 12.66532"></polygon>
                    </g>
                    <path d="M66.5116015,58.219 L69.3203956,77.425 L102.843675,114.109 C106.942513,106.8082 109.91569,101.5702 109.91569,101.5702 L66.5116015,58.219 Z" id="Fill-23" fill="#000000"></path>
                    <path d="M39.1362221,102.37012 L44.2285015,127.42612 L59.2837809,145.80772 L64.7441338,156.39892 C67.9567368,150.64972 70.9227662,145.37572 73.0454426,141.61012 L39.1362221,102.37012 Z" id="Fill-25" fill="#000000"></path>
                    <polygon id="Fill-27" fill="#000000" points="101.631891 45.52828 102.046421 50.12188 89.5926706 56.71708 83.0888471 54.01708 87.2448618 60.94708 101.542553 55.75228 106.699156 60.16948 107.974906 55.62268 104.64795 50.04268 105.169685 45.99268 108.246494 43.64548 108.886156 39.76828 96.4467 39.76828"></polygon>
                    <polygon id="Fill-29" fill="#000000" points="65.5238779 17.16028 56.2577162 9.71548 39.7908926 9.71548 14.1686868 31.44868"></polygon>
                    <polygon id="Fill-31" fill="#000000" points="91.4337529 64.94092 96.3830912 71.54692 102.036415 64.94092"></polygon>
                    <polygon id="Fill-33" fill="#000000" points="85.7139618 142.25848 95.4018 125.07568 55.9893441 81.10528 58.1870647 46.26808 37.0353441 81.36448 81.4471676 131.17408"></polygon>
                </g>
            </g>
        </g>
    </g>
</svg>